<?xml version="1.0"?>
<svg xmlns="http://www.w3.org/2000/svg" id="Layer_1" data-name="Layer 1" viewBox="0 0 512 512" width="512" height="512"><title>Coins</title><path fill="#ffffff" d="M504,328.229V282.453a18.765,18.765,0,0,0,.759-5.28c0-26.984-56.689-41.565-114.759-42.583V186.363a18.968,18.968,0,0,0,1.151-6.515A7.948,7.948,0,0,0,390,175.729V130.542a18.734,18.734,0,0,0,1.151-6.461c0-28-61.408-42.643-122.069-42.643-30.795,0-59.853,3.729-81.821,10.5-17.59,5.423-38.558,15.4-38.558,32.142a19.451,19.451,0,0,0,.264,3.184l1.174,48.469a118.368,118.368,0,1,0,50,207.487c17.035,3.659,42.55,6.195,66.428,6.693.839,9.085,8.447,21.129,37.775,30.247,21.577,6.707,50.4,10.4,81.159,10.4,30.662,0,59.411-3.774,80.951-10.628,31.035-9.876,37.55-22.976,37.55-32.226v-49.99a18.788,18.788,0,0,0,.917-5.778A7.956,7.956,0,0,0,504,328.229ZM302.174,245.037c-16.689,5.18-26.424,11.259-31.9,17.2-9.511-.079-21.493-.434-30.4-1a118.052,118.052,0,0,0-20.72-41.954,344.16,344.16,0,0,0,47.93,3.205c30.989,0,60.669-3.72,83.572-10.473A112.562,112.562,0,0,0,374,202.631V234.66C346.956,235.348,321.735,238.966,302.174,245.037Zm-37.839,72.9c-8.166-.154-16.577-.5-23.326-.9a118.447,118.447,0,0,0,1.949-39.6c6.51.339,13.761.567,20.191.694-.007.186-.017.372-.011.561Zm-27.974,14.832c7.618.53,18.157,1,28.463,1.181l1.218,39.948a408.036,408.036,0,0,1-51.733-4.335A118.488,118.488,0,0,0,236.361,332.771Zm43.424-33.089a99.277,99.277,0,0,0,22.389,9.629c21.828,6.774,50.7,10.506,81.294,10.506,40.967,0,82.27-6.77,104.532-19.895v34.456c-2.342,3.569-9.623,9.161-26.842,14.407-20.742,6.319-48.257,9.8-77.474,9.8-59.632,0-95.808-13.86-102.828-23.788Zm208.4-24.373A7.986,7.986,0,0,0,488,277v2.344c-2.34,3.779-10.341,9.577-27.1,14.672-20.785,6.32-48.285,9.8-77.434,9.8-67.041,0-103.613-17.6-103.613-26.644a4.6,4.6,0,0,1,.583-2.07,8.025,8.025,0,0,0,.747-1.172c7.057-9.442,42.571-23.4,102.283-23.4,29.149,0,56.649,3.481,77.434,9.8C478.117,265.566,486.094,271.543,488.183,275.309ZM269.082,97.438c29.36,0,57.059,3.482,78,9.8,16.711,5.047,24.784,10.776,27.235,14.553A8.018,8.018,0,0,0,374,124v2.819c-2.783,3.772-10.864,9.251-26.921,14.1-20.938,6.323-48.638,9.8-78,9.8-65.4,0-102.019-16.5-104.268-25.761l-.008-.043a3.751,3.751,0,0,1-.1-.839C164.7,115.038,201.545,97.438,269.082,97.438ZM165.45,147.01a104.4,104.4,0,0,0,21.811,9.212c21.968,6.773,51.026,10.5,81.821,10.5,41.056,0,82.447-6.712,104.918-19.728V182.41c-2.547,3.405-9.927,8.969-27.872,14.261-21.163,6.241-49.974,9.82-79.046,9.82-24.512,0-48.388-2.546-67.484-7.17a118.337,118.337,0,0,0-33.34-18.931ZM23.083,291.488A102.361,102.361,0,0,1,225.248,268.76a7.931,7.931,0,0,0,.671,3.2A102.357,102.357,0,1,1,23.083,291.488ZM461.6,404.687c-20.013,6.368-47.039,9.875-76.1,9.875-29.193,0-56.329-3.437-76.409-9.68-18.282-5.684-26.61-12.668-26.61-16.752,0-.081,0-.162,0-.244l-.987-32.334q10.608,6,27.38,10.453c20.892,5.532,47.461,8.579,74.814,8.579,40.846,0,82.026-6.736,104.316-19.8v32.922C488,391.839,479.738,398.914,461.6,404.687Z"/><path fill="#ffffff" d="M164.19,271a30.021,30.021,0,0,0-29.911-30H133v-7a8,8,0,0,0-16,0v7h-3v-7a8,8,0,0,0-16,0v7H92.649a8,8,0,0,0,0,16H96v72H92.649a8,8,0,0,0,0,16H98v7a8,8,0,0,0,16,0v-7h3v7a8,8,0,0,0,16,0v-7h1.279a30.016,30.016,0,0,0,20.332-52A30.026,30.026,0,0,0,164.19,271Zm-16,44a14,14,0,0,1-13.911,14H112V301h22.279A14,14,0,0,1,148.19,315ZM112,285V257h22.279a14,14,0,0,1,0,28Z"/></svg>
